<?xml version="1.0"?>
<svg xmlns="http://www.w3.org/2000/svg" viewBox="0 0 274 300" width="302" height="331" enable-background="new 0 0 274 300">
  <path style="fill:#000000;fill-rule:evenodd;stroke:none"
     d="M 98.125 0.4375 C 95.935969 0.4129375 93.724 0.47575 91.53125 0.625 C 85.46125 1.038 79.2885 1.55275 73.4375 3.09375 C 67.0255 4.78375 60.814 7.41125 54.75 10.15625 C 45.67 14.27225 37.42325 19.8565 30.15625 26.6875 C 22.89325 33.5135 16.72525 41.255 12.53125 50.375 C 9.81425 56.284 7.056 62.222 5 68.375 C 2.172 76.841 1.25175 85.744 0.96875 94.625 C 0.49175 109.785 0.8125 176.06 0.8125 189.25 L 0.625 189.25 C 0.625 192.344 0.601 195.43725 0.625 198.53125 C 0.714 210.42525 -0.65225 222.34275 0.84375 234.21875 C 1.51075 239.50875 2.03275 244.898 3.46875 250 C 5.24475 256.309 7.50725 262.564 10.28125 268.5 C 14.70825 277.976 20.907 286.3195 28.375 293.6875 C 32.375 297.6375 36.88725 299.65275 42.53125 297.59375 C 45.59025 296.47675 47.77 294.23975 50 291.96875 C 55.155 286.72075 59.67425 281.012 63.53125 274.75 C 66.96125 269.182 69.3485 263.1485 71.6875 257.0625 C 75.2015 247.9195 76.89975 238.47025 77.34375 228.78125 C 77.77775 219.33225 76.366 210.0715 73.875 200.9375 C 71.3 191.4935 67.35025 182.68125 62.15625 174.40625 C 61.55425 173.44725 61.216 172.32525 60.75 171.28125 C 61.925 171.03725 63.10825 170.58175 64.28125 170.59375 C 72.96925 170.67875 81.65875 170.93 90.34375 171 C 104.04675 171.113 117.7365 171.0145 131.4375 171.1875 C 141.8745 171.3195 152.166 170.41 162.125 167.125 C 172.053 163.85 181.39075 159.4265 189.84375 153.1875 C 191.11175 152.2515 192.9325 151.9805 194.0625 150.9375 C 197.3705 147.8825 200.574 144.689 203.625 141.375 C 210.564 133.836 216.4135 125.5285 220.4375 116.0625 C 222.1875 111.9455 224.69225 109.16525 229.03125 107.40625 C 234.35225 105.24825 239.34075 102.22275 244.34375 99.34375 C 246.75975 97.95475 248.43575 95.8585 247.96875 92.6875 C 247.79875 91.5345 247.92375 90.302 247.96875 89.125 C 248.09075 85.849 250.34775 83.6875 253.59375 83.6875 C 255.36175 83.6885 257.14625 83.58975 258.90625 83.71875 C 261.36025 83.89875 263.107 82.9515 264.5 80.9375 C 266.204 78.4725 268.141 76.196 269.875 73.75 C 273.279 68.946 274.32364 67.816656 270.34375 62.84375 C 260.37 50.381469 250.9825 40.195 237.6875 32.625 C 224.8335 25.306 210.9325 21.378 196.3125 20.25 C 186.5255 19.495 176.779 20.54625 167.25 23.15625 C 163.653 24.14125 160.0905 24.60825 156.6875 22.15625 C 152.2335 18.94725 147.7315 15.78525 143.0625 12.90625 C 135.2035 8.06025 126.537 5.003 117.625 2.875 C 111.22075 1.34275 104.69209 0.5111875 98.125 0.4375 z M 236.03125 46.875 C 238.42925 46.914 240.1705 48.6565 240.1875 51.0625 C 240.2065 53.7255 238.45941 55.4095 236.5 55.4375 C 233.56631 55.4645 231.905 53.80425 231.875 51.28125 C 231.844 48.65725 233.57825 46.834 236.03125 46.875 z " />
  <path d="M 25.04,31.856 C 23.59,33.444 22.2,35.078 20.881,36.767 L 62.337,78.223 L 153.467,169.353 C 155.895,168.864 158.349,168.296 160.744,167.561 L 25.044,31.861 z" style="fill:#653a9d" />
  <path d="M 29.523,27.27 C 27.972,28.752 26.474,30.28 25.036,31.853 L 160.736,167.553 C 161.196,167.412 161.656,167.274 162.114,167.123 C 163.919,166.527 165.704,165.893 167.469,165.218 L 29.519,27.268 z" style="fill:#2861b8" />
  <path d="M 167.47,165.22 C 169.633,164.393 171.762,163.499 173.857,162.538 L 34.307,22.988 C 32.892,24.168 31.509,25.393 30.159,26.661 C 29.944,26.863 29.733,27.068 29.52,27.271 L 167.47,165.221 z" style="fill:#5e8157" />
  <path d="M 34.3,22.995 L 173.85,162.545 C 175.899,161.606 177.916,160.603 179.89,159.525 L 39.41,19.045 C 37.664,20.304 35.959,21.622 34.3,23.005 z" style="fill:#f0d755" />
  <path d="M 39.41,19.04 L 179.89,159.52 C 181.821,158.465 183.715,157.335 185.573,156.134 L 44.843,15.404 C 42.986,16.547 41.175,17.761 39.406,19.036 z" style="fill:#f35d1d" />
  <path d="M 50.645,12.134 C 48.669,13.155 46.735,14.244 44.847,15.406 L 185.577,156.136 C 187.025,155.199 188.451,154.22 189.851,153.187 C 190.21,152.922 190.614,152.713 191.031,152.522 L 50.641,12.132 z" />
  <path d="M 54.741,10.145 C 53.354,10.773 51.99,11.44 50.643,12.136 L 191.033,152.526 C 192.093,152.042 193.25,151.69 194.063,150.942 C 194.786,150.274 195.089,149.996 195.801,149.314 L 56.611,9.314 C 55.988,9.592 55.365,9.871 54.744,10.152 z" />
</svg>
